<svg width="21" height="21" viewBox="0 0 21 21" fill="none" xmlns="http://www.w3.org/2000/svg">
<g clip-path="url(#clip0_8360_21015)">
<path d="M7.65625 3.625C6.83594 3.625 6.06771 3.78125 5.35156 4.09375C4.6224 4.40625 3.99089 4.82943 3.45703 5.36328C2.92318 5.89714 2.5 6.52865 2.1875 7.25781C1.875 7.97396 1.71875 8.74219 1.71875 9.5625C1.71875 10.3828 1.875 11.151 2.1875 11.8672C2.5 12.5964 2.92318 13.2279 3.45703 13.7617C3.99089 14.2956 4.6224 14.7188 5.35156 15.0312C6.06771 15.3438 6.83594 15.5 7.65625 15.5C8.47656 15.5 9.24479 15.3438 9.96094 15.0312C10.6901 14.7188 11.3216 14.2956 11.8555 13.7617C12.3893 13.2279 12.8125 12.5964 13.125 11.8672C13.4375 11.151 13.5938 10.3828 13.5938 9.5625C13.5938 8.74219 13.4375 7.97396 13.125 7.25781C12.8125 6.52865 12.3893 5.89714 11.8555 5.36328C11.3216 4.82943 10.6901 4.40625 9.96094 4.09375C9.24479 3.78125 8.47656 3.625 7.65625 3.625ZM0.46875 9.5625C0.46875 8.57292 0.657552 7.64193 1.03516 6.76953C1.41276 5.89714 1.92708 5.13542 2.57812 4.48438C3.22917 3.83333 3.99089 3.31901 4.86328 2.94141C5.73568 2.5638 6.66667 2.375 7.65625 2.375C8.64583 2.375 9.57682 2.5638 10.4492 2.94141C11.3216 3.31901 12.0833 3.83333 12.7344 4.48438C13.3854 5.13542 13.8997 5.89714 14.2773 6.76953C14.6549 7.64193 14.8438 8.57292 14.8438 9.5625C14.8438 10.5521 14.6549 11.4831 14.2773 12.3555C13.8997 13.2279 13.3854 13.9896 12.7344 14.6406C12.0833 15.2917 11.3216 15.806 10.4492 16.1836C9.57682 16.5612 8.64583 16.75 7.65625 16.75C6.66667 16.75 5.73568 16.5612 4.86328 16.1836C3.99089 15.806 3.22917 15.2917 2.57812 14.6406C1.92708 13.9896 1.41276 13.2279 1.03516 12.3555C0.657552 11.4831 0.46875 10.5521 0.46875 9.5625ZM11.8555 13.7617C11.9727 13.6445 12.1191 13.5859 12.2949 13.5859C12.4707 13.5859 12.6172 13.6445 12.7344 13.7617L16.543 17.5508C16.6602 17.681 16.7188 17.8307 16.7188 18C16.7188 18.1693 16.6602 18.319 16.543 18.4492C16.4128 18.5664 16.263 18.625 16.0938 18.625C15.9245 18.625 15.7747 18.5664 15.6445 18.4492L11.8555 14.6406C11.7383 14.5234 11.6797 14.377 11.6797 14.2012C11.6797 14.0254 11.7383 13.8789 11.8555 13.7617Z" fill="black"/>
</g>
<defs>
<clipPath id="clip0_8360_21015">
<rect width="20" height="20" fill="white" transform="matrix(1 0 0 -1 0.46875 20.5)"/>
</clipPath>
</defs>
</svg>
